<?xml version="1.0" ?><svg style="enable-background:new 0 0 48 48;" version="1.1" viewBox="0 0 48 48" xml:space="preserve" xmlns="http://www.w3.org/2000/svg" xmlns:xlink="http://www.w3.org/1999/xlink"><g id="Icons"><g><path d="M41.25359,19.74176c-0.59,0.96-4.42,3.01-7.3,3.62l-19.57,0.15c-2.89-0.61-7.05-2.6-7.64-3.56    c-0.59-0.95,1.84-2.5,3.58-3.14c1.89-0.69,6.97-2.48,7.27-3.41c0.29-0.93,2.21-4.33,3.39-6.34c1.18-2,3.06-1.65,3.06-1.65    s1.89-0.35,3.07,1.65c1.05,1.8,2.69,4.71,3.24,5.97c0.06,0.15,0.11,0.27,0.14,0.37c0.03,0.11,0.13,0.22,0.28,0.35    c1.14,0.98,5.32,2.45,6.99,3.06C39.50359,17.45176,41.84359,18.78176,41.25359,19.74176z" style="fill:#E1E5D6;"/><path d="M41.25359,19.74176c-0.59,0.96-4.42,3.01-7.3,3.62h-0.27l-3.77,0.03l-11.45,0.09l-3.85,0.03h-0.23    c-0.72-0.15-1.43-0.37-2.12-0.61c-0.97-0.34-1.92-0.72-2.85-1.15c-0.74-0.35-1.49-0.71-2.15-1.2c-0.17-0.13-0.38-0.28-0.48-0.48    c-0.08-0.14-0.02-0.28,0.09-0.38c0.24-0.23,0.54-0.37,0.83-0.53c0.31-0.18,0.63-0.35,0.95-0.53c0.64-0.34,1.29-0.66,1.96-0.93    c0.9-0.35,1.81-0.65,2.75-0.9c0.94-0.25,1.91-0.44,2.88-0.59c0.89-0.15,2.6001,1.0564,2.6902,1.0464    c1-0.07,2.1432-0.3659,3.1432-0.3659c0.99,0,2.07,0.5886,3.06,0.6486c0.96,0.06,1.701-0.4592,2.661-0.3493    c0.69,0.0801,1.3656,0.2326,2.0455,0.3327c0.23,0.0399,0.6348,0.226,0.8648,0.2661c0.45,0.07,0.9753-1.1086,1.4253-1.0186v0.01    c0.4,0.07,0.79,0.15,1.19,0.23c0.76,0.16,1.52,0.34,2.28,0.53c0.66,0.17,1.32,0.35,1.98,0.55c0.54,0.16,1.07,0.34,1.6,0.53    c0.4,0.14,0.8,0.3,1.19,0.47c0.24,0.12,0.49,0.23,0.71,0.39C41.14359,19.53176,41.31359,19.64176,41.25359,19.74176z" style="fill:#8D8D8D;"/><path d="M39.22359,37.54176c-0.88,0,0.48,1.94-0.58,1.39c-1.05-0.55-0.99-1.06-1.46,0.48    c-0.4415,1.4075,0.1578,1.8672-0.3195,1.9084c-0.0415,0.0036-1.0497-0.6843-1.109-0.6867    c-0.7399-0.04-1.9321-1.0431-1.9321-1.0431s-0.2633-0.6016-1.4534-0.4616c-1.19,0.13-4.0195,1.5277-5.0276,2.019    c-0.5142,0.2507-0.9711,0.5055-1.2684,0.644c-0.89,0.41-0.55,0.07-1.5-0.24c-0.96-0.3-1.58,1.06-1.58,1.06s-0.67-0.99-1.6-1.64    c-0.46-0.32-0.6025-0.26-0.7575-0.0938c-0.155,0.1663-0.5119-0.4692-1.0219-0.3642c-1.03,0.1999-0.7041-0.6278-2.2741-0.8379    c-1.57-0.2-1.2386,0.1594-2.1886-0.2906c-0.96-0.4601-2.4379,1.2465-3.1279,1.4065c-0.69,0.15-1.05-0.74-1.83-0.22    c-0.79,0.51-1.16,0.44-0.62-0.79c0.55-1.23,0.68-1.46-0.54-2.01c-1.23-0.54-0.42-1.57-0.42-1.57s1.37-0.51,1.25-3.1    c-0.11-2.6,0.63-3.07,2.55-3.87c1.92-0.79,1.52-1.38,1.81-3.2c0.17-1.02,0.3-1.92,0.39-2.52c0.07-0.47,0.11-0.75,0.11-0.75    c0.37-2.55,1.52-6.55,1.52-6.55c0.89-0.15,1.79-0.25,2.69-0.31c0.09-0.01,0.18-0.01,0.27-0.02c1-0.07,2-0.1,3-0.1    c0.99,0,1.97,0.04,2.96,0.1c0.96,0.06,1.92,0.15,2.88,0.26c0.69,0.08,1.37,0.18,2.05,0.28c0.23,0.04,0.46,0.07,0.69,0.11    c0.45,0.07,0.9,0.15,1.35,0.24v0.01l1.13,5.05c0,0,0.23,0.61,0.42,1.53c0.14,0.69,0.26,1.55,0.24,2.46    c-0.05,2.13,0.89,2.87,2.79,3.98c1.89,1.1,1.53,2.07,1.55,2.99c0.03,0.91-0.5,2.02,0.85,3.19c1.36,1.17,0.49,0.53,0.73,0.97    C40.07359,37.40176,40.11359,37.53176,39.22359,37.54176z" style="fill:#F4F4F4;"/><path d="M30.13359,20.67176c-0.23,0.83,0.08,1.79-0.22,2.72c-0.07,0.18-0.15,0.35-0.26,0.53    c-0.66,1.03-1.31,1.88-1.38,2.33h-0.03c-0.26-0.23-0.56-0.46-0.88-0.67c-0.29-0.18-0.58-0.34-0.85-0.45    c-0.29-0.13-0.55-0.2-0.75-0.2c-0.55,0.01-1.09-0.3-1.39-0.51c-0.01,0-0.01,0-0.01,0c-0.09-0.07-0.17-0.13-0.2-0.16    c-0.03,0.02-0.1,0.08-0.21,0.16c-0.29,0.2-0.84,0.52-1.4,0.51c-0.13,0-0.29,0.03-0.46,0.09c-0.24,0.07-0.5,0.19-0.77,0.34    c-0.45,0.25-0.9,0.57-1.25,0.89l-0.04-0.02c0-0.43-0.74-1.42-1.44-2.5c-0.05-0.08-0.1-0.16-0.13-0.25c-0.5-1.01-0.08-2.08-0.34-3    c-0.29-0.99-0.04-4.07-0.04-4.31c0.28-0.1,0.57-0.18,0.85-0.27c0.09-0.01,0.18-0.01,0.27-0.02c1-0.07,2-0.1,3-0.1    c0.99,0,1.97,0.04,2.96,0.1c0.96,0.06,1.92,0.15,2.88,0.26c0.69,0.08,1.37,0.18,2.05,0.28    C30.12359,16.92176,30.40359,19.73176,30.13359,20.67176z" style="fill:#F9D9C0;"/><path d="M36.86359,41.31176c-0.04,0.01-0.09,0.01-0.15,0.01c-0.74-0.04-1.78-0.53-1.78-0.53    s-0.96-0.77-2.15-0.63c-1.19,0.13-0.31,0.95-0.31,0.95c-1.22,0-1.19,0.21-2.22-0.48c-0.68-0.45-1.9,0.02-2.91,0.52l0.82-1.14    c1.07-0.67,1.48-4.31,2.05-6.51c0.29-1.12,0.47-2.9,0.58-4.39c0.28,1.19,0.65,2.26,1.12,2.86c1.52,1.93,1.67,3.42,1.62,4.61    c-0.05,1.18,1.29,3.41,2.68,4.21C36.21359,40.79176,36.21359,40.79176,36.86359,41.31176z" style="fill:#DBDBD9;"/><g><path d="M20.59359,40.92176c-0.14,0.17-0.32,0.4-0.79,0.5c-1.03,0.2-1.23-0.58-2.8-0.79     c-1.57-0.2-0.65,1.23-0.65,1.23c-0.92-0.31-0.85-1.4-1.8-1.85c-0.96-0.46-1.84,0.62-2.53,0.78c1.39-0.8,2.73-3.03,2.68-4.21     c-0.05-1.19,0.1-2.68,1.62-4.61c0.46-0.58,0.82-1.62,1.1-2.79c0.11,1.46,0.31,3.2,0.6,4.32c0.57,2.2,0.98,5.84,2.05,6.51     L20.59359,40.92176z" style="fill:#DBDBD9;"/></g><g><g><path d="M26.85479,21.45936c-0.8125,0-1.5479-0.834-1.6289-0.9297      c-0.1436-0.1679-0.1241-0.4199,0.0439-0.5634c0.168-0.1426,0.4199-0.1231,0.5635,0.0429      c0.2168,0.253,0.6846,0.6504,1.0205,0.6504c0.0029,0,0.0049,0,0.0078-0.001c0.6055-0.0117,1.3164-0.1777,1.3232-0.1796      c0.212-0.0469,0.4297,0.082,0.4815,0.2978c0.0508,0.2148-0.083,0.4307-0.2979,0.4815      c-0.0322,0.0068-0.8007,0.1875-1.4912,0.2011C26.86939,21.45936,26.86159,21.45936,26.85479,21.45936z" style="fill:#E5C0A8;"/></g><g><path d="M26.66819,19.59706c-0.5947,0-0.6494-0.0185-0.7001-0.0351      c-0.0977-0.0332-0.1788-0.1026-0.2266-0.1934l-0.5654-1.0742c-0.0596-0.1133-0.0616-0.2471-0.0059-0.3613      c0.0557-0.1153,0.1621-0.1963,0.2881-0.2188c0.5703-0.1025,1.9355-0.3379,2.1953-0.3301      c0.2754,0.0137,1.1729,0.2295,1.4414,0.2949c0.2139,0.0528,0.3457,0.2696,0.293,0.4844      c-0.0528,0.2129-0.2666,0.3477-0.4844,0.293c-0.5146-0.126-1.1533-0.2666-1.2881-0.2734c-0.001,0-0.001,0-0.001,0      c-0.1289,0-0.7802,0.1025-1.4755,0.2226l0.208,0.3955c0.2793-0.0019,0.9648-0.0078,1.5839-0.0195c0.002,0,0.0049,0,0.0069,0      c0.2178,0,0.3965,0.1748,0.4004,0.3935c0.0039,0.2207-0.1719,0.4024-0.3936,0.4073      C27.35769,19.59216,26.95149,19.59706,26.66819,19.59706z" style="fill:#E5C0A8;"/></g><g><path d="M21.44659,21.45936c-0.0069,0-0.0147,0-0.0225,0c-0.6904-0.0136-1.459-0.1943-1.4912-0.2011      c-0.2148-0.0508-0.3486-0.2667-0.2979-0.4815c0.0508-0.2158,0.2647-0.3447,0.4815-0.2978      c0.0068,0.0019,0.7197,0.1689,1.3232,0.1796c0.003,0.001,0.0049,0.001,0.0078,0.001c0.3516,0,0.8379-0.4365,1.0196-0.6494      c0.1455-0.1699,0.3965-0.1865,0.5644-0.0449c0.168,0.1435,0.1875,0.3965,0.044,0.5644      C22.99439,20.62536,22.25909,21.45936,21.44659,21.45936z" style="fill:#E5C0A8;"/></g><g><path d="M21.65159,19.59706c-0.2832,0-0.6884-0.0049-1.2753-0.0146      c-0.2217-0.0049-0.3975-0.1866-0.3936-0.4073c0.0039-0.2207,0.1992-0.413,0.4072-0.3935      c0.5987,0.0107,1.2588,0.0166,1.583,0.0127l0.1973-0.3867c-0.6973-0.1211-1.3545-0.2246-1.4883-0.2246h-0.001      c-0.1298,0.0068-0.7685,0.1474-1.2832,0.2734c-0.2148,0.0557-0.4316-0.0801-0.4843-0.293      c-0.0528-0.2148,0.0791-0.4316,0.2929-0.4844c0.2686-0.0654,1.166-0.2812,1.4405-0.2949      c0.2949-0.0058,1.6279,0.2276,2.1963,0.3301c0.125,0.0225,0.2314,0.1025,0.2871,0.2158      c0.0556,0.1133,0.0556,0.2461-0.002,0.3594l-0.5469,1.0742c-0.0478,0.0938-0.1298,0.1651-0.2295,0.1983      C22.30109,19.57856,22.24639,19.59706,21.65159,19.59706z" style="fill:#E5C0A8;"/></g></g><path d="M19.69739,15.85036c-0.0152,0.0644-0.0892,1.0584-0.108,1.1217    c-0.0572,0.1933-0.1266,0.3842-0.2157,0.5656c-0.1155,0.2355-0.2647,0.3909-0.4547,0.5698    c-0.4437,0.4178-0.8575,0.8654-1.2593,1.3223v-2.1829c0,0-0.0868-1.2651,0.8191-1.3187    C19.38469,15.87456,19.69739,15.85036,19.69739,15.85036z" style="fill:#F4F4F4;"/><path d="M28.71779,16.22596c0.0152,0.0644,0.1191,1.1566,0.1379,1.2199    c0.0572,0.1933,0.1266,0.3842,0.2156,0.5656c0.1155,0.2355,0.2648,0.3909,0.4548,0.5698    c0.4437,0.4178,0.8574,0.8654,1.2592,1.3223v-2.1829c0,0,0.2487-1.0005-0.4588-1.2511c-0.0551-0.0195-0.2953-0.0583-0.3602-0.0676    C29.09239,16.27706,28.71779,16.22596,28.71779,16.22596z" style="fill:#F4F4F4;"/><path d="M27.36359,25.58176c-0.29-0.18-0.58-0.34-0.85-0.45c-0.1-0.72-0.27-1.24-0.44-1.62    c-0.15,0.18-0.38,0.33-0.76,0.4c-0.13,0.03-0.24,0.12-0.37,0.22c-0.14,0.11-0.33,0.25-0.57,0.29c-0.01,0-0.01,0-0.01,0    c-0.09-0.07-0.17-0.13-0.2-0.16c-0.03,0.02-0.1,0.08-0.21,0.16c-0.23-0.05-0.42-0.19-0.56-0.29c-0.13-0.1-0.24-0.19-0.37-0.22    c-0.32-0.06-0.54-0.18-0.68-0.31c-0.15,0.36-0.26,0.83-0.25,1.42c-0.24,0.07-0.5,0.19-0.77,0.34c-0.19-2.3,1.14-3.36,1.2-3.41    c0.14-0.11,0.33-0.11,0.47-0.02c0.15,0.1,0.21,0.28,0.16,0.44c-0.03,0.12-0.1,0.19-0.17,0.25c-0.1,0.11-0.16,0.19-0.17,0.23    c0.01,0.09,0.01,0.21,0.36,0.28c0.32,0.06,0.54,0.23,0.71,0.36c0.17,0.14,0.23,0.16,0.28,0.15c0.06,0.01,0.12-0.01,0.29-0.15    c0.17-0.13,0.39-0.3,0.7-0.36c0.36-0.07,0.36-0.19,0.37-0.29c-0.01-0.03-0.07-0.11-0.17-0.22c-0.07-0.06-0.14-0.14-0.18-0.25    c-0.03-0.15,0.01-0.31,0.13-0.41c0.12-0.1,0.28-0.12,0.42-0.06C25.87359,21.96176,27.12359,22.61176,27.36359,25.58176z" style="fill:#E5C0A8;"/><path d="M30.77359,13.75176c0,0-2.87-0.9-6.87-0.48c0,0,2.92-0.99,6.45-0.24c0.06,0.15,0.11,0.27,0.14,0.37    C30.52359,13.51176,30.62359,13.62176,30.77359,13.75176z" style="fill:#C1C6AF;"/><path d="M32.61359,18.94176c-0.62-0.11-1.23-0.2-1.83-0.28c-0.19-0.03-0.37-0.05-0.55-0.07    c-0.28-0.05-0.55-0.08-0.81-0.11c-4.24-0.51-7.82-0.56-10.42-0.45c-0.36,0.01-0.7,0.03-1.01,0.04c-0.12,0.01-0.22,0.02-0.33,0.03    c-0.8,0.05-1.47,0.12-1.98,0.18c0.31-1.2,0.56-2.07,0.56-2.07c0.71-0.12,1.43-0.21,2.15-0.26c0.02-0.01,0.03-0.01,0.04-0.01    c0.02-0.01,0.04-0.01,0.05-0.01c0.05-0.01,0.11-0.01,0.16-0.01c0.05,0,0.11,0,0.15-0.01c0.05,0,0.1-0.01,0.14-0.01    c0.56-0.04,0.76-0.05,0.76-0.05c0.84-0.05,1.67-0.07,2.51-0.07c0.99,0,1.97,0.04,2.96,0.1c0.96,0.06,1.92,0.15,2.88,0.26    c0.22,0.03,0.45,0.05,0.67,0.08c0,0,0.38,0.06,1.25,0.18c0.03,0,0.07,0.01,0.13,0.02c0.05,0.01,0.12,0.02,0.16,0.03    c0.01,0,0.03,0,0.04,0.01c0.17,0.01,0.32,0.04,0.49,0.07c0.45,0.07,0.9,0.15,1.35,0.24v0.01L32.61359,18.94176z" style="opacity:0.1;"/><path d="M28.21489,28.41186c-0.3534-0.2667-0.7804-0.4019-1.1315-0.5882    c-0.1766-0.0919-0.3522-0.1944-0.4574-0.3094c-0.1055-0.1121-0.1264-0.2222-0.1414-0.4074    c-0.0161-0.1517,0.0315-0.4542-0.159-0.7581c-0.1247-0.1909-0.3042-0.3098-0.5038-0.3749    c-0.0601-0.036-0.1264-0.0623-0.2014-0.0623h-2.8047c-0.0188,0-0.0349,0.0082-0.053,0.0107    c-0.3116,0.0151-0.6033,0.1493-0.7844,0.4265c-0.1904,0.3039-0.1429,0.6064-0.1591,0.7581    c-0.0149,0.1852-0.0358,0.2953-0.1413,0.4074c-0.1052,0.115-0.2809,0.2175-0.4575,0.3094    c-0.351,0.1863-0.7781,0.3215-1.1313,0.5882c-0.3525,0.236-0.6632,0.6859-0.5169,1.1094    c-0.0676-0.4401,0.2722-0.7718,0.6227-0.9397c0.3568-0.1904,0.7605-0.2484,1.1792-0.3885    c0.2069-0.0716,0.4203-0.1431,0.6335-0.303c0.2269-0.1558,0.3622-0.4653,0.4046-0.6912c0.0763-0.5366,0.1743-0.4961,0.3575-0.4894    l0.0394,0.0015c0.0024,0.0001,0.0043,0.0013,0.0066,0.0013h2.8047c0.0078,0,0.0143-0.0039,0.0219-0.0043    c0.1158,0.0063,0.1899,0.0728,0.2494,0.4909c0.0425,0.2259,0.1777,0.5354,0.4046,0.6912c0.2132,0.1599,0.4266,0.2314,0.6335,0.303    c0.4187,0.1401,0.8224,0.1981,1.1792,0.3885c0.3505,0.1679,0.6902,0.4996,0.6228,0.9397    C28.87789,29.09776,28.56719,28.64786,28.21489,28.41186z" style="fill:#DBDBD9;"/></g></g></svg>