<?xml version="1.0" ?><svg style="enable-background:new 0 0 48 48;" version="1.1" viewBox="0 0 48 48" xml:space="preserve" xmlns="http://www.w3.org/2000/svg" xmlns:xlink="http://www.w3.org/1999/xlink"><g id="Icons"><g><g><path d="M33.2931,31.00813c-0.0381,0-0.0771-0.0059-0.1162-0.0176     c-0.2109-0.0635-0.331-0.2871-0.2666-0.499l2.5401-8.3985c0.0634-0.2109,0.2832-0.332,0.499-0.2666     c0.2109,0.0635,0.331,0.2871,0.2666,0.499l-2.5401,8.3985C33.6242,30.89673,33.465,31.00813,33.2931,31.00813z" style="fill:#DDBEA8;"/></g><g><path d="M34.8254,31.57743c-0.0381,0-0.0772-0.0059-0.1163-0.0176     c-0.2109-0.0635-0.331-0.2871-0.2666-0.499l2.3438-7.7481c0.0635-0.2109,0.2822-0.33,0.499-0.2666     c0.211,0.0635,0.3311,0.2872,0.2666,0.4991l-2.3437,7.748C35.1564,31.46613,34.9972,31.57743,34.8254,31.57743z" style="fill:#DDBEA8;"/></g><path d="M19.7894,27.09503c0,0-3.421,1.0632-6.2854,1.8948c-2.8643,0.8315-4.8657,2.3979-5.9712,5.0612    c-1.1056,2.6634-1.6039,3.9904-1.6039,3.9904c11.9552,3.9233,24.0028,3.8853,36.1422-0.086c0,0-1.0022-3.8141-2.4805-5.3835    c-1.4782-1.5694-3.7396-3.1454-6.8857-4.1331c-3.1462-0.9877-4.3882-1.6033-4.3882-1.6033L19.7894,27.09503z" style="fill:#5D665B;"/><path d="M19.8062,26.23693c0,0-0.4628,2.1128,3.4789,3.4447l0.661,6.1495l0.8054-6.055    c0.0028-0.0338,0.1681-0.1977,0.2068-0.2139c0.7447-0.3103,1.463-0.6976,2.0918-1.2063c0.6686-0.5408,1.1119-1.208,1.6068-1.8977    c0.053-0.0738,0.1061-0.1476,0.1593-0.2213H19.8062" style="fill:#DDBEA8;"/><path d="M15.9725,17.42003c0-0.0086,0.0002-0.0214,0.0003-0.0311    c-0.0002-0.0073-0.0002-0.0097-0.0002-0.0097L15.9725,17.42003z" style="fill:#FFF2DC;"/><path d="M15.9724,17.51953l0.0001-0.0995C15.9723,17.47893,15.9724,17.51953,15.9724,17.51953z" style="fill:#FFF2DC;"/><path d="M20.5358,11.47333c0,0-2.0462-0.4728-3.8543,0.8281c-0.6477,2.1058-0.7052,4.5295-0.7087,5.0875    c0.0015,0.0557,0.0145,0.4306,0.1288,2.7409c0.1292,2.6103-0.6408,12.0373-0.6408,12.0373l3.2052,4.0336    c-0.7522-3.4051,1.6889-10.5787,1.6889-10.5787l1.0253,0.0454l-0.7815-12.9918L20.5358,11.47333z" style="fill:#FFF2DC;"/><path d="M32.4315,32.79613c0,0-0.1944-3.6729-0.6146-5.9476c-0.4201-2.2747,0.357-6.8817,0.2329-8.3973    c-0.0915-1.1158-0.2729-3.9403-0.7023-5.9789c-1.6929-1.0546-3.3653-0.8692-3.3653-0.8692l-0.4484,1.7347l-0.8628,12.5637    l1.2274,0.0543c2.0154,6.4186,1.159,10.6188,1.159,10.6188L32.4315,32.79613z" style="fill:#FFF2DC;"/><path d="M28.4335,12.49573c0,0,1.2211-1.078,2.914-0.0234c-0.1539-0.7303-0.3388-1.3622-0.5639-1.7752    c-0.4075-0.7472-1.1451-1.4784-2.106-2.0933c-2.9441,0.7274-3.8582,4.9788-3.8582,4.9788l-0.0679,0.4745v11.7595l1.9195,0.0849    l1.6062-12.6924L28.4335,12.49573z" style="fill:#FCEAD0;"/><path d="M24.0643,13.01923c0,0-1.0272-3.9612-4.1913-4.8181c-0.6629,0.4478-1.3032,1.0053-1.9401,1.6906    c-0.5662,0.6093-0.9648,1.4781-1.2514,2.4097c1.8081-1.3009,3.137-0.1242,3.137-0.1242l0.1562,0.7134l1.4055,12.7768    l1.6925,0.0748l0.6966-11.7671L24.0643,13.01923z" style="fill:#FCEAD0;"/><path d="M24.8194,13.58263c0,0,0.9141-4.2514,3.8582-4.9788c-1.0524-0.6736-2.3741-1.2071-3.8582-1.4532    c-1.9451-0.3224-3.5049,0.0769-4.9464,1.0505c3.1641,0.8569,3.4976,5.3815,3.4976,5.3815l-0.0303,0.4745l-0.2676,11.6851    l1.6788,0.0744v-11.7595L24.8194,13.58263z" style="fill:#FFF2DC;"/><path d="M33.1585,17.47723c0,0.01,0,0.03-0.01,0.04c-0.01,0.1101-0.03,0.2301-0.04,0.35    c-0.05,0.54-0.31,2.3801-1.1,3.1c-0.8,0.7201-1.46,0.19-1.46,0.19s-0.14,0.67-0.43,1.9701c-0.28,1.2999-0.64,1.8999-1.7,2.87    c-1.07,0.9699-3.56,1.9799-4.51,1.9499c-0.94-0.04-3.51-1.15-4.28-1.91c-0.78-0.77-1.29-1.27-1.44-1.97    c-0.15-0.7-0.66-2.89-0.66-2.89c-0.57,0.4501-1.42-0.02-2.15-1.2c-0.42-0.7-0.53-1.56-0.52-2.39c-0.01-0.1-0.01-0.19,0.01-0.26    c0.04-0.3899,0.27-0.41,0.45-0.36c0.22,0.11,0.43,0.2201,0.65,0.34c0.63,0.35,1.56,2.17,1.56,2.17s0.47-3.49,0.76-5.37    c0.29-1.88,1.53-1.93,1.53-1.93s1.49,1.08,2.79,1.33c1.31,0.2401,3.45,0.26,4.78-0.59c1.33-0.85,1.67-0.18,1.67-0.18    c1.11,0.8,1,2.94,1.17,3.93c0.18,0.99,0.43,2.82,0.43,2.82s0.37-0.32,1.02-1.3599c0.32-0.5201,0.71-0.8301,1.04-1.0201    c0,0,0.03-0.02,0.06-0.03C32.9185,17.02723,33.1885,16.96723,33.1585,17.47723z" style="fill:#F9D9C0;"/><g><path d="M25.0373,21.28253c-0.2773-0.0342-0.5195,0.0576-0.6904,0.2588     c-0.0537,0.0642-0.1676,0.0808-0.23,0.0814c-0.0624-0.0006-0.1772-0.0172-0.231-0.0805     c-0.1699-0.2011-0.4209-0.2939-0.6884-0.2597c-0.2256,0.0312-0.4053,0.1484-0.4795,0.3144     c-0.0908,0.2012-0.002,0.4375,0.2002,0.5283c0.1289,0.0596,0.2763,0.042,0.3877-0.0322     c0.2716,0.2917,0.6405,0.3288,0.8026,0.3303c0.0014,0,0.0026,0.0008,0.004,0.0008c0.0011,0,0.0032-0.0003,0.0043-0.0003     c0.0012,0,0.0034,0.0003,0.0045,0.0003c0.0015,0,0.0027-0.0009,0.0041-0.0009c0.1654-0.0015,0.5498-0.0405,0.7928-0.337     c0.1123,0.0791,0.2636,0.1015,0.3974,0.039c0.2022-0.0908,0.291-0.3271,0.2002-0.5283     C25.4416,21.43193,25.2629,21.31473,25.0373,21.28253z" style="fill:#EDC6AB;"/><path d="M29.2707,16.56083c-0.8545-0.5381-1.9092-0.3125-2.6846-0.1494     c-0.6611,0.1406-1.4648,0.2812-1.4668,0.2822c-0.1591,0.0273-0.2861,0.1484-0.3213,0.3066     c-0.0185,0.085-0.1738,0.8438,0.211,1.3233c0.1328,0.166,0.3965,0.376,0.8965,0.3515c0.415-0.0918,1.6562-0.2744,2.3877-0.0136     c0.0439,0.0156,0.0898,0.0234,0.1338,0.0234c0.165,0,0.3193-0.1025,0.3769-0.2666c0.0742-0.208-0.0351-0.4365-0.2432-0.5107     c-1.1015-0.3926-2.7587-0.0293-2.7421-0.0235c-0.001,0-0.001,0-0.001,0c-0.1348,0-0.1699-0.042-0.1846-0.0605     c-0.0644-0.0801-0.085-0.2412-0.082-0.3955c0.3056-0.0557,0.8056-0.1494,1.2783-0.25c0.6055-0.128,1.4365-0.3028,2.0156,0.0605     c0.1865,0.1143,0.4336,0.0615,0.5518-0.126C29.5139,16.92603,29.4582,16.67903,29.2707,16.56083z" style="fill:#EDC6AB;"/><path d="M22.8049,18.37043c0.0478-0.2149-0.0889-0.4288-0.3037-0.4766     c-0.0703-0.0147-1.7305-0.376-2.8291,0.0137c-0.208,0.0732-0.3174,0.3017-0.2432,0.5107     c0.0576,0.1641,0.2119,0.2666,0.377,0.2666c0.0439,0,0.0898-0.0078,0.1338-0.0234c0.8818-0.3125,2.372,0.0097,2.3886,0.0136     C22.5402,18.71903,22.758,18.58523,22.8049,18.37043z" style="fill:#EDC6AB;"/><path d="M21.4816,17.19463c0.6739,0.1426,1.4932,0.2861,1.4932,0.2861l0.1387-0.7871     c-0.002-0.001-0.8047-0.1416-1.543-0.2979c-0.6982-0.1484-1.7539-0.371-2.6074,0.1651c-0.1875,0.1182-0.2432,0.3652-0.126,0.5517     c0.1172,0.1875,0.3643,0.2403,0.5518,0.126C19.9699,16.87433,20.799,17.05003,21.4816,17.19463z" style="fill:#EDC6AB;"/></g><path d="M24.9647,23.88243c-0.4889-0.2151-0.8521,0.0209-0.8521,0.0209s-0.3631-0.236-0.852-0.0209    c-0.4888,0.2149-0.7822,0.304-0.9289,0.2725c0,0,0.9638,0.6031,1.7809,0.598c0.8171,0.0051,1.7808-0.598,1.7808-0.598    C25.7468,24.18643,25.4534,24.09733,24.9647,23.88243z" style="fill:#E5C0A8;"/><polyline points="36.0086,23.05053 35.9442,23.27123 36.7441,24.84343 38.2704,23.97913 39.4564,20.07163     38.0037,20.68763 37.7004,20.22793   " style="fill:#414940;"/><polygon points="37.0204,22.47473 35.4907,23.34073 34.6974,21.77213 35.8784,17.86713 36.7485,19.18173     38.2014,18.56963   " style="fill:#5D665B;"/></g></g></svg>