<?xml version="1.0" ?><svg style="enable-background:new 0 0 48 48;" version="1.1" viewBox="0 0 48 48" xml:space="preserve" xmlns="http://www.w3.org/2000/svg" xmlns:xlink="http://www.w3.org/1999/xlink"><g id="Icons"><g><path d="M15.6947,31.27529c-1.6223,0.4695-4.9208,0.4334-6.0691,1.4375    c-1.0045,0.8784-1.7875,1.9281-2.2787,3.091l-1.5631,3.7543c0,0,17.4611,6.5221,36.4324,0.0424l-1.5631-3.7542    c-0.1702-0.403-0.3723-0.806-0.6168-1.1771c-1.0634-1.6757-3.0573-2.2958-5.1416-3.1124c0,0,0.303-0.7162,0.2924-0.7162" style="fill:#A67358;"/><path d="M9.6256,32.71279c0,0,2.2102-1.8063,4.3857-2.4056c0,0,0.2438-0.0073,1.7663-0.2677    c1.5225-0.2603,0.7885-0.0402,2.2588,0.0428c1.4703,0.0831,1.8148-0.973,2.835-0.1328c1.0203,0.8402,2.0283,2.5148,2.4961,2.5662    c0.4678,0.0515,1.6998,0.2562,3.126-0.8811c1.4262-1.1373,1.316-1.3934,2.6014-1.7771s0.9326-1.2957,2.5201-0.8834    s2.6432,0.836,3.3328,1.4427c0.6897,0.6066,0.8151,0.9761,2.3713,1.5222c1.5563,0.5461,2.7172,2.7302,2.7172,2.7302    s-2.5283-1.4786-6.6457-0.9837c-4.1173,0.495-6.6466,0.7766-6.6466,0.7766s-1.0176,0.6606-2.6529,0.0154    c-1.6354-0.6451-3.3588-0.975-5.6243-1.065C16.2013,33.32239,11.3727,32.23539,9.6256,32.71279z" style="fill:#577484;"/><path d="M12.8393,15.56759c0,0,0.9973-0.4357,0.9298-1.6679c-0.0676-1.2323,0.2715-3.2868,0.9544-4.032    c0.6829-0.7451,1.093-0.2296,2.4219-1.741c1.3288-1.5114,1.5458-2.072,3.2879-2.3695c1.7421-0.2976,2.3688-0.2,2.3688-0.2    l1.0993,0.4241c0,0,0.4646-0.595,1.8392-0.4177c1.3747,0.1772,2.6236,0.5277,3.4622,1.0981    c0.8387,0.5704,0.5715,1.7878,1.7264,2.1244c1.1548,0.3365,1.671,0.8243,1.671,0.8243s-0.8586,0.7827-0.6705,1.5063    c0.1881,0.7236,0.5827,0.8743,1.2209,1.0859c0.6383,0.2116,1.5034,1.4199,1.3578,2.5376c0,0-0.9944,0.2529-0.8263,1.0165    c0.1681,0.7636,0.5917,1.9557,0.2461,3.2812c-0.3455,1.3255-1.048,2.4975-1.2482,3.0303    c-0.2002,0.5327-0.255,1.4166,0.3679,1.9244c0,0-0.2752,0.6516-1.2357,0.2843c0,0,0.0585,0.834-0.2576,1.555    c-0.3161,0.721-1.3105,1.9109-1.3105,1.9109s0.157-2.2695-0.2844-2.5871c-0.4415-0.3177-11.92-0.1995-11.92-0.1995    s-0.9147,0.8315-0.7612,1.9012l0.1566,0.7943c0,0-1.7438-1.3788-1.5317-3.261c0,0-0.7901,0.056-1.1668-0.2885    c-0.3767-0.3445,0.9568-0.7665,0.1634-1.9144c-0.7933-1.1478-1.823-3.7811-1.0465-6.2963L12.8393,15.56759z" style="fill:#AA8B7D;"/><path d="M19.9955,27.74279c-0.0128,0.1325-0.0099,1.1157-0.4349,1.5432c0,0,3.5309,2.4549,3.8069,3.4268    c0,0,1.3313-0.2742,2.5725-1.5172c1.2413-1.243,2.4032-2.1061,2.4032-2.1061s-0.468-0.863-0.3873-1.1759    C28.0366,27.60069,19.9955,27.74279,19.9955,27.74279z" style="fill:#DDBEA8;"/><path d="M22.6452,17.25319c0,0,0.4484-1.7167,0-2.907c-0.4485-1.1904-0.4247-1.2472-1.4754-0.7426    c-1.0508,0.5045-1.7184,0.3594-1.6635,1.5c0.055,1.1407,0.4612,2.4024,0.4612,2.4024s-1.2749-1.5942-1.7521-1.771    c-0.4771-0.1769-0.4634,0.3055-0.5885,1.0568c-0.1252,0.7512-0.7326,1.8396-0.3647,4.1553    c0.3679,2.3158,0.2167,4.0756,1.2519,5.36c1.0352,1.2844,3.1667,3.3617,5.459,3.1346c2.2924-0.2271,4.4074-1.3084,5.3843-3.0077    c0.9769-1.6994,1.0851-3.2367,1.3881-4.0913c0.303-0.8545,0.0669-3.5923-1.1294-4.8978s-2.244-2.0509-2.244-2.0509    s-0.2652-0.2254-0.1665-1.2643c0.0987-1.0388,0.1151-0.759-0.6804-0.8268c-0.7955-0.0677-0.662-0.212-1.1751,1    C24.8371,15.51489,23.5698,16.80569,22.6452,17.25319z" style="fill:#F9D9C0;"/><path d="M23.9976,25.30329c0,0-0.7834-0.4151-1.6894,0.1467c0,0,0.5141,0.7325,1.6894,0.769    c1.1754-0.0365,1.6895-0.769,1.6895-0.769C24.7812,24.88819,23.9976,25.30329,23.9976,25.30329z" style="fill:#E5C0A8;"/><g><path d="M25.3843,22.51159c-0.2452,0.003-0.4043,0.1563-0.42,0.378     c-0.0312,0.0205-0.1445,0.041-0.2197,0.0547c-0.0947,0.0175-0.1904,0.0361-0.2812,0.0644     c-0.1494,0.0462-0.2748,0.1051-0.4206,0.1774c-0.0259,0.0018-0.0506-0.0021-0.0775,0.0062     c-0.1084-0.0566-0.25-0.1279-0.4336-0.1836c-0.0898-0.0283-0.1855-0.0469-0.2803-0.0644     c-0.0752-0.0137-0.1894-0.0342-0.207-0.0674c-0.0166-0.2197-0.1924-0.3867-0.4277-0.3711     c-0.2207,0.0156-0.3867,0.207-0.3711,0.4277c0.0459,0.6485,0.5967,0.749,0.8613,0.7979c0.0635,0.0117,0.1279,0.0224,0.1885,0.041     c0.1299,0.04,0.2285,0.0918,0.3047,0.1318c0.1113,0.0567,0.2324,0.1192,0.373,0.1192c0.0077,0,0.0162-0.0034,0.0239-0.0038     c0.008,0.0004,0.0171,0.0038,0.0249,0.0038c0.1407,0,0.2637-0.0635,0.3741-0.1202c0.0771-0.039,0.1758-0.0908,0.3037-0.1308     c0.0605-0.0186,0.125-0.0293,0.1885-0.041c0.2656-0.0489,0.8164-0.1494,0.8613-0.7989     C25.7641,22.71179,25.604,22.52729,25.3843,22.51159z" style="fill:#EDC6AB;"/><path d="M29.187,17.49499c-0.043-0.0117-1.0742-0.3027-2.3194-0.0039     c-1.1972,0.2871-1.6132,0.5752-1.6572,0.6065c-0.1758,0.1289-0.2129,0.373-0.0879,0.5517     c0.0772,0.1094,0.2012,0.168,0.3272,0.168c0.0791,0,0.1582-0.0225,0.2275-0.0693c0.0029-0.002,0.3506-0.2324,1.3779-0.4795     c1.0254-0.249,1.9024-0.0069,1.9122-0.0039c0.2099,0.0566,0.4336-0.0635,0.4931-0.2754     C29.521,17.77729,29.3989,17.55659,29.187,17.49499z" style="fill:#EDC6AB;"/><path d="M22.7817,18.65719c0.1299-0.1788,0.0908-0.4288-0.0869-0.5596     c-0.0439-0.0313-0.46-0.3194-1.6563-0.6065c-1.2441-0.2988-2.2773-0.0078-2.3203,0.0039     c-0.2119,0.0616-0.3339,0.2823-0.2734,0.4942c0.0596,0.2119,0.2822,0.332,0.4932,0.2754c0.0097-0.003,0.8818-0.2442,1.913,0.0039     c1.0215,0.2461,1.3711,0.4756,1.3711,0.4756c0.0713,0.0517,0.1543,0.0771,0.2364,0.0771     C22.5815,18.82119,22.7026,18.76459,22.7817,18.65719z" style="fill:#EDC6AB;"/><path d="M28.519,19.17179c-1.3984-0.6846-2.5986-0.0186-2.6484,0.0117     c-0.1914,0.1084-0.2578,0.3496-0.1514,0.542c0.1074,0.1914,0.3486,0.2578,0.544,0.1553     c0.0371-0.0195,0.9003-0.4824,1.9043,0.0098c0.0566,0.0273,0.1162,0.041,0.1757,0.041c0.1475,0,0.2901-0.083,0.3594-0.2246     C28.7993,19.50769,28.7173,19.26849,28.519,19.17179z" style="fill:#EDC6AB;"/><path d="M21.979,19.18349c-0.0498-0.0293-1.25-0.6943-2.6485-0.0117     c-0.1982,0.0967-0.2802,0.3359-0.1836,0.5352c0.0694,0.1416,0.212,0.2246,0.3594,0.2246c0.0596,0,0.1192-0.0137,0.1758-0.041     c1.001-0.4903,1.8623-0.0333,1.9043-0.0108c0.1885,0.1084,0.4346,0.04,0.543-0.1514     C22.2387,19.53609,22.1714,19.29189,21.979,19.18349z" style="fill:#EDC6AB;"/></g><path d="M25.5351,34.65669c-0.45-0.03-0.87-0.16-1.27-0.37c-0.15-0.08-0.32-0.16-0.51-0.24    c-2.53-1.05-8.38-2.27-9.48-3.01c-1.28-0.85,0.57-1.65,1.09-1.59c0.52,0.06,2.23-1.22,3.46-0.68c3.48,1.53,4.54,3.86,4.54,3.86    c0.82,1.22,2.39,1.04,2.93,0.93C27.3351,34.61669,26.3551,34.71669,25.5351,34.65669z" style="fill:#6D8F9E;"/><path d="M27.3713,29.69699c-0.9459,0.9838-2.0368,2.2186-3.9623,2.9927c0,0,1.6097,1.0937,3.7966,0.1849    c2.1869-0.9088,8.1539-2.0708,8.1539-2.0708s-0.5422-1.0813-2.2442-1.437c-0.5452-0.1139-1.7134-0.449-2.2913-0.6256    C29.4974,28.33549,28.3317,28.69809,27.3713,29.69699z" style="fill:#6D8F9E;"/></g></g></svg>