<?xml version="1.0" ?><svg style="enable-background:new 0 0 48 48;" version="1.1" viewBox="0 0 48 48" xml:space="preserve" xmlns="http://www.w3.org/2000/svg" xmlns:xlink="http://www.w3.org/1999/xlink"><g id="Icons"><g><path d="M36.71,34.32122l-25.94,0.22c0,0-0.76-2.5,0.76-4.11c1.51-1.61,1.32-4.59,1.39-6.4    c0.07-1.81,0.29-3.34,1.37-7.01c1.07-3.66,0.87-4.17,0.87-4.17s-0.47,0.34-0.01-0.68c0.06-0.14,0.12-0.26,0.17-0.36    c0.3-0.61,0.35-0.53,0.57-1.57c0.08-0.41,0.32-0.94,0.71-1.49c0.76-1.08,2.07-2.22,3.8-2.64c2.63-0.62,8.67-0.44,10.01,2.08    c0,0,0.21,0.23,0.48,0.62c0.4,0.57,0.9,1.48,1,2.48c0,0-0.48,0.08-0.71,0.5c-0.09,0.15-0.14,0.34-0.13,0.58    c0.04,0.94,1.3,0.63,1.3,0.63s0.18,2.8,1.01,4.65c0.83,1.84,1.5,4.17,1.17,6.14c-0.34,1.98-0.25,3.95,0.21,4.76    c0.46,0.81,2.15,2.07,1.96,4.46L36.71,34.32122z" style="fill:#FFF2BD;"/><path d="M35.6596,34.33082l-6.6496,0.0604l-5.5-6.08l1.47-4.65l6.34-3.68c0.62,0.5,0.9,1.41,1.11,2.14    c0.1,0.36,0.19,0.73,0.27,1.1c0.1,0.5,0.06,1.02,0.16,1.52c0.1945,0.8986,0.5721,2.5247,0.8027,3.5046    c0.1413,0.6,0.4241,1.154,0.8296,1.6182c0.6228,0.713,1.1057,1.6423,1.0926,2.9855L35.6596,34.33082z" style="fill:#E5D698;"/><path d="M24.55,31.74622l-0.97,2.62l-11.8507,0.1708c0,0-0.8141-2.3754,0.7059-3.9854    c0.2056-0.2207,0.3904-0.6486,0.5234-1.0204c0.1564-0.4368,0.3542-0.8515,0.6055-1.2415c0.555-0.8611,1.4984-2.62,1.4559-4.5735    c-0.01-0.45,0.08-1.35,0.21-1.75h1.81l4.83,3.94L24.55,31.74622z" style="fill:#E5D698;"/><path d="M19.724,27.85112c0,0,0.6898,2.1835-1.6934,3.3738c-2.3832,1.1904-3.8384,2.0368-3.8384,2.0368    s1.275,4.8021,4.2478,5.6449c2.9728,0.8427,9.4057,1.0989,11.8352-0.5042s3.7148-5.0912,3.7148-5.0912    s-2.8867-1.0584-4.0222-1.989c-1.1354-0.9307-2.0582-2.099-1.6991-3.5544C28.6279,26.31242,19.724,27.85112,19.724,27.85112" style="fill:#F9D9C0;"/><path d="M28.27,27.77122c-0.08,0.31-0.1,0.62-0.06,0.9c-1.23,1.22-2.56,1.9-4.56,1.88    c-1.43-0.02-2.76-0.75-3.85-1.75c0.04-0.45-0.04-0.79-0.07-0.91c-0.01-0.03-0.01-0.04-0.01-0.04s8.87-1.53,8.55-0.09V27.77122z" style="fill:#DDBEA8;"/><path d="M18.2711,13.59082c0,0-0.2346,1.0686-0.7511,2.0169c-0.5164,0.9483-0.1463,0.7004-0.353,2.1005    c-0.2067,1.4001-0.1239,1.9451-0.6844,2.5053c-0.5605,0.5602-1.2501,1.8147-1.2501,1.8147s-0.0102,2.6198,1.8646,1.9372    c-0.066,0.024,0.8299,1.6981,0.9219,1.8439c1.1969,1.8972,3.2822,3.8603,5.6282,3.8856c2.2023,0.0238,3.582-0.8004,4.9267-2.2356    c0.1146-0.1223,0.2148-0.2465,0.3104-0.3831c0.9263-1.3238,1.7254-3.2552,1.7254-3.2552s1.0944,0.3262,1.5516-0.6032    c0.4573-0.9293-0.1688-2.7742-0.8393-3.2364s-0.6705-1.7306-0.5624-2.7078c0.1082-0.9771-1.1178-3.0105-1.2692-3.9838    c-0.0817-0.5256-3.5456,0.807-4.276,0.3671c-0.6221-0.3746,2.4198-1.581,1.8627-1.9637c-1.211-0.8322-3.257-1.7502-3.302-1.8286    c-0.0449-0.0784-3.596,1.7375-3.596,1.7375s2.0911,1.6735,1.7071,1.9699c-0.384,0.2965-3.5419-0.6318-3.6361-0.1694" style="fill:#F9D9C0;"/><path d="M24.8613,25.51862c-0.5563-0.2158-0.8719,0.1246-0.8719,0.1246s-0.3155-0.3404-0.8718-0.1246    c-0.5564,0.216-0.7723,0.2491-0.9882,0.2243c0,0,0.6726,0.6311,1.86,0.7474c1.1874-0.1163,1.8601-0.7474,1.8601-0.7474    C25.6336,25.76772,25.4177,25.73462,24.8613,25.51862z" style="fill:#E5C0A8;"/><path d="M33.99,33.31122l0.67,0.3c0,0,1.17,0.22,2.57,0.86c1.4,0.66,3.04,1.76,3.99,3.53    c0,0-5.46,4.4-17.44,4.18c-11.99-0.23-17-4.18-17-4.18c0.95-1.77,2.59-2.87,3.99-3.53c1.4-0.64,2.57-0.86,2.57-0.86l0.82-0.36    C22.32,42.47122,30.82,37.30122,33.99,33.31122z" style="fill:#F4F4F4;"/><path d="M31.89,11.29122c0,0-0.48,0.08-0.71,0.5l-0.12-0.11l-1.61-0.24l0.12-0.47c0,0,1.18-0.85,1.32-2.16    C31.29,9.38122,31.79,10.29122,31.89,11.29122z" style="fill:#E5D698;"/><path d="M18.02,10.97122l-0.02,1.11c0,0,0,0-0.71,0.14c-0.58,0.11-1.61-0.27-1.97-0.41    c0.3-0.61,0.35-0.53,0.57-1.57c0.08-0.41,0.32-0.94,0.71-1.49l0.07-0.0975C16.8,9.99362,18.02,10.97122,18.02,10.97122z" style="fill:#E5D698;"/><g><path d="M25.2491,22.90642c-0.207-0.0733-0.6465-0.1114-1,0.2294     c-0.1073,0.1034-0.1949,0.1006-0.1854,0.1035c-0.0419-0.0067-0.0846-0.0111-0.1291-0.0038     c-0.0068,0.0097-0.0937,0.0058-0.2041-0.0997c-0.3544-0.3408-0.7949-0.3027-1.0009-0.2294     c-0.2071,0.0761-0.3135,0.3056-0.2383,0.5136c0.0762,0.208,0.3047,0.3145,0.5137,0.2383c0,0,0.0898-0.0244,0.1699,0.0527     c0.2871,0.2784,0.5908,0.3243,0.7588,0.3243c0.0297,0,0.035-0.0028,0.0556-0.0046c0.0207,0.0018,0.026,0.0046,0.0557,0.0046     c0.168,0,0.4707-0.0459,0.7588-0.3233c0.0732-0.0703,0.1484-0.0586,0.1806-0.0508c0.2061,0.0723,0.4278-0.0371,0.503-0.2412     C25.5626,23.21202,25.4561,22.98252,25.2491,22.90642z" style="fill:#EDC6AB;"/><path d="M22.7442,17.92592c-0.0723-0.1123-0.2637-0.4092-2.584-1.0381     c-0.0752-0.0225-0.1552-0.0176-0.2324,0.0068l-1.6279,0.5479c-0.209,0.0703-0.3213,0.2969-0.251,0.5068     c0.0703,0.209,0.293,0.3242,0.5068,0.251l1.5118-0.5088c0.8574,0.2373,1.8349,0.5635,2.0322,0.7061     c0.0781,0.0937,0.1924,0.1455,0.3086,0.1455c0.0742,0,0.1494-0.0205,0.2168-0.0645     C22.8106,18.35952,22.8643,18.11142,22.7442,17.92592z" style="fill:#EDC6AB;"/><path d="M22.2022,19.24132c-0.0508-0.0322-1.2715-0.7656-3.2041-0.2734     c-0.2138,0.0547-0.3437,0.2724-0.289,0.4863c0.0546,0.2139,0.2695,0.3467,0.4863,0.2891     c1.5859-0.4043,2.5469,0.1543,2.5889,0.1797c0.0644,0.039,0.1367,0.0585,0.208,0.0585c0.1338,0,0.2646-0.0673,0.3398-0.1904     C22.4483,19.60362,22.3907,19.35752,22.2022,19.24132z" style="fill:#EDC6AB;"/><path d="M29.5059,17.44252l-1.6279-0.5479c-0.0771-0.0244-0.1562-0.0293-0.2324-0.0068     c-2.3203,0.6289-2.5117,0.9258-2.6104,1.0859c-0.0722,0.1553-0.416,0.9571-0.084,1.5293     c0.1133,0.1953,0.3487,0.4366,0.8291,0.4766c0.0108,0.001,0.0215,0.0019,0.0313,0.0019c0.0732,0,0.1475-0.0214,0.21-0.0585     c0.04-0.0245,1-0.584,2.5888-0.1797c0.2178,0.0566,0.4326-0.0762,0.4864-0.2891c0.0546-0.2139-0.0752-0.4316-0.2891-0.4863     c-1.5781-0.4014-2.6846,0.0146-3.0635,0.1972c-0.0508-0.0136-0.084-0.0351-0.1006-0.0634     c-0.08-0.1377-0.0049-0.4873,0.0869-0.7207c0.2432-0.1495,1.1817-0.46,2.0079-0.6895l1.5117,0.5088     c0.2129,0.0713,0.4365-0.042,0.5068-0.251C29.8272,17.73942,29.7149,17.51282,29.5059,17.44252z" style="fill:#EDC6AB;"/></g><g><path d="M14.6162,41.15542c-0.1269,0-0.2529-0.0615-0.33-0.1748     c-2.6895-3.9414-0.5332-7.7588-0.4395-7.919c0.0313-0.0488,1.6045-2.4043,1.1729-5.2275     c-0.4776-3.1279-0.4512-5.5186,0.0869-7.752c0.0508-0.2148,0.2637-0.3515,0.4824-0.2949     c0.2148,0.0518,0.3467,0.2676,0.2949,0.4824c-0.5127,2.128-0.5351,4.4229-0.0732,7.4434     c0.4805,3.1436-1.2158,5.6689-1.2881,5.7744c-0.0664,0.1182-1.9746,3.5264,0.4238,7.042     c0.125,0.1826,0.0782,0.4316-0.1045,0.5557C14.7725,41.13292,14.6944,41.15542,14.6162,41.15542z" style="fill:#FFF2BD;"/></g><g><path d="M33.0836,41.15542c0.1269,0,0.2529-0.0615,0.3301-0.1748     c2.6894-3.9414,0.5332-7.7588,0.4394-7.919c-0.0312-0.0488-1.6045-2.4043-1.1728-5.2275     c0.4775-3.1279,0.4511-5.5186-0.0869-7.752c-0.0508-0.2148-0.2637-0.3515-0.4825-0.2949     c-0.2148,0.0518-0.3466,0.2676-0.2949,0.4824c0.5127,2.128,0.5352,4.4229,0.0733,7.4434     c-0.4805,3.1436,1.2158,5.6689,1.288,5.7744c0.0664,0.1182,1.9746,3.5264-0.4238,7.042     c-0.125,0.1826-0.0781,0.4316,0.1045,0.5557C32.9273,41.13292,33.0055,41.15542,33.0836,41.15542z" style="fill:#FFF2BD;"/></g><g><path d="M23.7152,15.11422c-0.7257-0.7963-2.4996-1.3002-3.689-1.3002     c-0.3936,0-0.787-0.0591-1.1637-0.1733c-0.2835-0.0859-0.5887-0.1979-0.8319-0.3711c-2.7214,0.7358-2.8624-0.2519-2.8826-0.2519     c-0.6652-0.2116-0.5544-0.7358-0.3528-1.3002c0.0705-0.2117,0.3225-0.4031,0.7256-0.5444     c0.7158-0.2318,1.9151-0.3123,3.568-0.0706c0.4537,0.0706,0.8972,0.2321,1.3104,0.4739     C22.2638,12.61442,23.6144,14.94272,23.7152,15.11422z" style="fill:#FFE291;"/><path d="M32.353,12.99752c-0.0404,0.0101-0.2117,0.9877-2.8626,0.2923     c-0.02-0.01-0.0503-0.01-0.0705-0.0202c0,0-0.8063,0.5444-1.9956,0.5444c-1.1994,0-2.9733,0.5039-3.6889,1.3002     c0.0907-0.1715,1.4413-2.4998,3.3059-3.5378c0.4132-0.2418,0.8567-0.4033,1.3102-0.4739     c1.6833-0.252,2.8927-0.1612,3.5983,0.0908c0.3931,0.1311,0.6249,0.3226,0.6955,0.5242     C32.8469,12.26172,32.9476,12.77582,32.353,12.99752z" style="fill:#FFE291;"/></g></g></g></svg>